inDegrees=no
num_controls=7
num_derivatives=13
num_iterations=165
num_multipliers=7
num_parameters=0
num_slacks=7
num_states=26
objective=5.658390
objective_accelerations=0.847605
objective_balance=0.056735
objective_effort=0.469284
objective_height=4.201566
objective_ligament=0.083199
solver_duration=1788.603200
status=Solve_Succeeded
success=true
DataType=double
version=3
OpenSimVersion=4.4-2022-07-23-0e9fedc
endheader
time	/jointset/ground_pelvis/pelvis_tilt/value	/jointset/ground_pelvis/pelvis_tx/value	/jointset/ground_pelvis/pelvis_ty/value	/jointset/hip_l/hip_flexion_l/value	/jointset/hip_l/hip_adduction_l/value	/jointset/hip_l/hip_rotation_l/value	/jointset/back/lumbar_extension/value	/jointset/patellofemoral_l/patellar_flexion_l/value	/jointset/knee_l/knee_flexion_l/value	/jointset/knee_l/knee_adduction_l/value	/jointset/knee_l/knee_rotation_l/value	/jointset/ankle_l/ankle_angle_l/value	/jointset/subtalar_l/subtalar_angle_l/value	/jointset/ground_pelvis/pelvis_tilt/speed	/jointset/ground_pelvis/pelvis_tx/speed	/jointset/ground_pelvis/pelvis_ty/speed	/jointset/hip_l/hip_flexion_l/speed	/jointset/hip_l/hip_adduction_l/speed	/jointset/hip_l/hip_rotation_l/speed	/jointset/back/lumbar_extension/speed	/jointset/patellofemoral_l/patellar_flexion_l/speed	/jointset/knee_l/knee_flexion_l/speed	/jointset/knee_l/knee_adduction_l/speed	/jointset/knee_l/knee_rotation_l/speed	/jointset/ankle_l/ankle_angle_l/speed	/jointset/subtalar_l/subtalar_angle_l/speed	/forceset/tau_hip_flexion_l	/forceset/tau_hip_adduction_l	/forceset/tau_hip_rotation_l	/forceset/tau_knee_flexion_l	/forceset/tau_ankle_angle_l	/forceset/tau_subtalar_angle_l	/forceset/tau_lumbar_extension	lambda_cid13_p0	lambda_cid13_p1	lambda_cid13_p2	lambda_cid13_p3	lambda_cid13_p4	lambda_cid13_p5	lambda_cid14_p0	/jointset/ground_pelvis/pelvis_tilt/accel	/jointset/ground_pelvis/pelvis_tx/accel	/jointset/ground_pelvis/pelvis_ty/accel	/jointset/hip_l/hip_flexion_l/accel	/jointset/hip_l/hip_adduction_l/accel	/jointset/hip_l/hip_rotation_l/accel	/jointset/back/lumbar_extension/accel	/jointset/patellofemoral_l/patellar_flexion_l/accel	/jointset/knee_l/knee_flexion_l/accel	/jointset/knee_l/knee_adduction_l/accel	/jointset/knee_l/knee_rotation_l/accel	/jointset/ankle_l/ankle_angle_l/accel	/jointset/subtalar_l/subtalar_angle_l/accel	gamma_cid13_p0	gamma_cid13_p1	gamma_cid13_p2	gamma_cid13_p3	gamma_cid13_p4	gamma_cid13_p5	gamma_cid14_p0
0.5	-0.3404734994702215	-0.04614519311304055	0.7093175159890551	1.3671110142316	-0.2555627013814153	-0.01863147691415598	-0.3577704795000042	1.06168650223794	1.06168650223788	-0.0110866936623305	0.1743324032940679	0.2408620163039588	0.05668084082002861	-0.3701043584632549	-0.1229565607277376	-0.7574620922691151	2.5719971946059	0.07894708256377403	0.4551566353762821	-0.5949173293516812	2.761767701436192	2.761767701436131	0.4314119636999195	0.008766326052064398	0.7084684847444093	0.2740023296565792	-0.2059603662971098	-0.009910466056192016	-0.007201105663302996	-0.31038001027246	0.1218976193897117	0.02775053555267904	0.2064157009949455	1.923039546479757	-11.91752461764416	0.9592872445076229	-12.28191661197212	-602.3665427920961	-68.27540181767237	-5.529577542949283	1.201056477770454	1.047816257233635	-0.6081087234527274	-2.121194397039951	0.05421377569606064	-0.8065908284108344	2.36156476890828	-1.856208333409178	-1.856208333409178	-0.2965596434701436	-0.354059868895324	-1.11998008083828	0.1107140043306878	2.648744939369736e-07	-5.183863064161987e-06	-4.972687767064673e-06	-1.019044879788705e-06	-9.681908846632257e-08	-3.611367018508374e-06	1.563232403945542e-08
0.51	-0.3441138734250461	-0.04732233968915446	0.7017143900015822	1.39272136317572	-0.2547717168496532	-0.01412749096496439	-0.3636011991641579	1.089206931898075	1.089206931897949	-0.006783582324511305	0.1744078790670006	0.2478889341074774	0.05942446954643804	-0.3579105874519852	-0.1124660047656571	-0.7629765521878122	2.549739400196344	0.07919015898759152	0.4455830151426828	-0.5711742605776887	2.741940912194067	2.741940912194043	0.4291830883256311	0.006394760744512693	0.6967956193259734	0.2746150923233249	-0.2126905971653543	-0.009786400816540187	-0.007339060592399055	-0.3159840278521778	0.1206282368687589	0.02801759959905365	0.2123083500082385	1.102689056238201	-11.69021468313859	0.6949928785101313	-11.94712727961955	-609.6267472761608	-68.71729364255953	-4.187530076079346	1.237512439333682	1.050488956535151	-0.4951540618873411	-2.328045471903795	0.001397559989464185	-1.041421986431372	2.388529366809733	-2.102515221292341	-2.102515221286958	-0.1908925121717586	-0.1677978796203758	-1.209079893309243	0.02168442825796212	1.960702730633684e-07	-4.842687392730902e-06	-4.205889371080687e-06	-9.09326092676091e-07	-1.535865140381323e-07	-3.435579548586719e-06	-2.079937101906363e-08
0.52	-0.3476305146644514	-0.0483944179674797	0.6940617115277606	1.418099139473948	-0.2539798929568001	-0.009720976091224335	-0.3691929178535382	1.116517773465431	1.116517773465278	-0.00250372794598885	0.1744618205832773	0.2547954952326193	0.06217125130559724	-0.3453578153795764	-0.1019429011700053	-0.7673725895388648	2.52548266542717	0.07911495478199994	0.4356624202852082	-0.5471171343970938	2.719850082884811	2.719850082884822	0.4267605718408002	0.004459474719548506	0.6843971490690179	0.2746329362065296	-0.2194208280335929	-0.009662335576874716	-0.007477015521419188	-0.3215880454318915	0.1193588543478101	0.02828466364544685	0.2182009990215362	0.2915412285557626	-11.47537849706048	0.4450886856117529	-11.70943837163173	-616.778537112452	-69.17089138859649	-3.034158039345529	1.272856689998244	1.054325783947912	-0.3844242099238157	-2.520982468963563	-0.009442350185750899	-0.8759857531858812	2.424376250228727	-2.309016346835604	-2.309016346835593	-0.3352878655786427	-0.2668040123778212	-1.265101048542195	-0.008269752377516879	8.144245776804078e-08	-4.376124223401282e-06	-2.966882929572317e-06	-7.38567112522096e-07	-2.376944605156878e-07	-3.025001930447057e-06	-9.557882397401052e-08
0.53	-0.3510199773373819	-0.04936123276902996	0.6863706869982251	1.443224631675585	-0.2531907841898745	-0.005412907946020761	-0.3745427386326831	1.143596648728476	1.143596648728335	0.00174852146461187	0.1744976869068323	0.2615744851609005	0.06491463740276626	-0.332486302622822	-0.0914262871755171	-0.7706429838074553	2.499304616491787	0.07865379141840027	0.425902414219419	-0.5228201228818626	2.69556962001175	2.695569620011758	0.4236668665727538	0.00278439156479568	0.6712964938801228	0.2739378362159915	-0.225905341748324	-0.009385988791169872	-0.007796398591772843	-0.3273628276385405	0.1178377712589272	0.02832706315799264	0.2238195847550655	-0.6256324897973277	-11.13503968546567	0.1644819093729459	-11.22125876882562	-623.9792055259312	-69.38423704466977	-2.062713519538406	1.301545439230278	1.049265226826535	-0.2700035256733075	-2.712904919528063	-0.07186215048449915	-1.033562589889169	2.43639838462941	-2.540836742886258	-2.54083674288679	-0.3003716959611123	-0.1067536040733915	-1.348371282318894	-0.115167180036444	9.900385928192487e-09	-3.927946091629609e-06	-2.09033128713082e-06	-6.106851061272561e-07	-2.833001755828004e-07	-2.675720092783998e-06	-1.371580019152921e-07
0.54	-0.3542792755086004	-0.05022309422671002	0.6786526272279345	1.468079005625132	-0.2524077688207921	-0.001203950772791496	-0.3796487823401829	1.170422064265712	1.170422064265598	0.005969041854811511	0.1745190237714353	0.2682193038316421	0.06764806508850102	-0.3193249150374177	-0.08095223239596711	-0.7727796376898973	2.471259015008306	0.07789627521329513	0.4158402258890836	-0.4983617200682646	2.669158137724894	2.669158137724899	0.4204147677629715	0.001553582928067297	0.6575628975609995	0.272641253919675	-0.2323898554630378	-0.009109642005437013	-0.008115781662166612	-0.3331376098451875	0.1163166881700504	0.02836946267057453	0.2294381704886103	-1.532832937942775	-10.80977267298931	-0.09850445556588143	-10.84415240176782	-631.0615866436667	-69.63704767120483	-1.290504723311883	1.330831655728189	1.04581394096028	-0.1576761326941374	-2.894492978583024	-0.06871291848685976	-0.9364222060951032	2.456654509902122	-2.735220229594431	-2.735220229594483	-0.3669665739258435	-0.1779491087729427	-1.3916892745878	-0.1285662135331855	-1.397235272686958e-08	-3.500108852475239e-06	-1.614793464933527e-06	-5.302414536787161e-07	-2.86307677174529e-07	-2.39425486330782e-06	-1.420049606925179e-07
0.55	-0.3574056992218418	-0.05098051475803757	0.6709188554144533	1.492643916873839	-0.2516338255888317	0.0029043755297261	-0.3845096041723337	1.196973070925986	1.196973070925943	0.01015515952810799	0.1745295159041821	0.2747238615864525	0.07036544011076108	-0.3059230102424224	-0.0705463666450712	-0.7737849638525767	2.441428273839247	0.07683778714707114	0.4058021758642166	-0.4738006261322599	2.640713336210048	2.640713336210059	0.4167626531866287	0.0006176649392495178	0.6432661590319143	0.2707219335769946	-0.2384572438911536	-0.009041886994830897	-0.008528988949365103	-0.3392813675447081	0.1148411239494697	0.02833435567341551	0.2346678241865778	-2.434525815662419	-10.45495404292743	-0.3626067954783571	-10.34358218613795	-638.0922545945756	-69.87652908233788	-0.7135214912362113	1.350375863466706	1.035701703243332	-0.04355427460362326	-3.071626623820224	-0.132268897837017	-1.041172385884873	2.456139869858375	-2.948559900639584	-2.948559900638478	-0.37170691496229	-0.04016651260199545	-1.461172877344691	-0.2397085959591712	-1.638635022493618e-08	-3.137993697660148e-06	-1.358726004255076e-06	-4.778401684494811e-07	-2.759935843809525e-07	-2.21490806099853e-06	-1.299453905990751e-07
0.5600000000000001	-0.3603970026927157	-0.05163433086963849	0.6631807116560355	1.516901668323306	-0.2508720376669629	0.006911586134961141	-0.389124754458242	1.223229739613467	1.223229739613498	0.01430328145255109	0.1745328981832958	0.2810829506089172	0.07306040319932962	-0.2923008665641663	-0.06023134845064194	-0.7736540266771925	2.409827055160074	0.07546521319496635	0.3956170864312561	-0.4492274108199025	2.610290543166808	2.610290543166828	0.4128156179913362	0.0001316122037985196	0.6284691510917975	0.2681588671813675	-0.2445246323192631	-0.008974131984200847	-0.008942196236509197	-0.3454251252442238	0.113365559728896	0.0282992486762904	0.2398974778845501	-3.327834945008874	-10.11426064771071	-0.6100018199222279	-9.952513856302692	-645.0304904667373	-70.1595461170988	-0.3205953791515735	1.374879432380284	1.027644429666967	0.06957653491854934	-3.248588480605599	-0.1315300956630053	-0.9658300877137509	2.459078785172691	-3.13081853527309	-3.130818535273058	-0.4259506977157742	-0.08797605809962279	-1.491743156794124	-0.2573154241225187	6.950141665390902e-09	-2.854745044052191e-06	-1.366022977399228e-06	-4.590897238834111e-07	-2.496935783250105e-07	-2.158103371289501e-06	-9.759798586083045e-08
0.5700000000000001	-0.363251224474905	-0.05218558399744708	0.655449548777117	1.540834884827607	-0.2501252196638253	0.010816687196472	-0.3934942731816535	1.249172462432873	1.249172462432899	0.01841067597556926	0.1745329251994329	0.2872917577015467	0.07572688884518262	-0.2785266443561934	-0.050046880257474	-0.7723881344300795	2.376539971457212	0.07385836414206351	0.3853937940417753	-0.4246958994102913	2.57793105616924	2.577931056169224	0.408622965393889	-7.575424312576162e-05	0.6132210270195241	0.2650410531306034	-0.2502256980213162	-0.008863609128795092	-0.009437810307766541	-0.3517577169251137	0.1116418781743372	0.02810433963789058	0.2447485367556121	-4.317051355638991	-9.681310876136315	-0.8790266948438844	-9.293304503605098	-651.8924788963794	-70.28888612480331	-0.1008821151178667	1.381210183538115	1.00961784554386	0.1836108077135404	-3.410220246250431	-0.1809721219643201	-1.052153557736941	2.447252486638944	-3.336942603660895	-3.336942603666198	-0.4223233865783214	0.02070493805661502	-1.552140880956987	-0.3530062779217857	3.81993795738994e-08	-2.379311147150547e-06	-1.297558496067023e-06	-4.259509553303754e-07	-2.007827147833334e-07	-1.951549063728231e-06	-5.81154706999739e-08
0.58	-0.3659672007213066	-0.05263583847704375	0.6477367478682911	1.564426940108657	-0.2493956121135892	0.01461924038546387	-0.3976190637574114	1.274781904617971	1.274781904617989	0.02247486380343054	0.174532448218238	0.2933459247837515	0.07835939797405433	-0.2646517594069293	-0.04003161880825572	-0.7699816326587141	2.34159481050939	0.07202312261473401	0.3751075119254311	-0.4002817812893333	2.543634416305185	2.543634416305134	0.4041742789636815	2.975435176890656e-05	0.5975411490067307	0.2613635637851028	-0.2559267637233579	-0.008753086273353887	-0.009933424379161327	-0.358090308606004	0.109918196619788	0.02790943059954166	0.2495995956266839	-5.300668922457412	-9.25945064203621	-1.134738588645944	-8.730184330408932	-658.6959285962757	-70.45251309068196	-0.04185487524331502	1.395011980638488	0.9938030808770461	0.2976984397690536	-3.580203929597654	-0.1772085905483933	-0.9784280330864351	2.435600127442051	-3.518249108570449	-3.518249108570468	-0.4771574642678689	-0.02540104973577592	-1.578093944898101	-0.3692504830698827	7.975358904096894e-08	-1.653589491540862e-06	-1.130427934486547e-06	-3.740739043757109e-07	-1.224251531207008e-07	-1.54997199803382e-06	-9.340718709670117e-09
0.59	-0.3685440087368929	-0.05298687400300502	0.6400536256679278	1.587661576643558	-0.2486846920368014	0.01832014370594849	-0.4015004882091331	1.300039270688235	1.300039270688248	0.02649326720334318	0.1745326390659225	0.2992416448490511	0.08095348856826157	-0.2507076718349231	-0.03021512183278149	-0.7664551635528258	2.30507191463869	0.07014670283498246	0.3650989766639449	-0.3760469396332752	2.5075321087525	2.507532108752435	0.3994619948283906	1.027322089612766e-05	0.5815498025901794	0.2573929723260827	-0.2612178813338123	-0.008706219795706483	-0.01048636718536065	-0.3642981448496462	0.1078810348639642	0.02771063490654593	0.2540287785978805	-6.375051332172759	-8.824110344905385	-1.387914403515711	-7.95153307207962	-665.1796826585136	-70.59842686260079	-0.04188024978808026	1.394430274176061	0.969558952339615	0.4082524214314391	-3.727420738313142	-0.1948067914470866	-1.008219122012829	2.41085159791981	-3.702228774737301	-3.702228774739458	-0.4750576461248092	0.01030487795195826	-1.617655394211122	-0.4198851257275681	1.174873184396626e-07	-1.208837916795609e-06	-1.129834230090172e-06	-3.513343742439645e-07	-6.916664281897744e-08	-1.396584505305678e-06	3.485924893136059e-08
